<?xml version="1.0" standalone="no"?>
<!DOCTYPE svg PUBLIC "-//W3C//DTD SVG 20010904//EN"
 "http://www.w3.org/TR/2001/REC-SVG-20010904/DTD/svg10.dtd">
<svg version="1.0" xmlns="http://www.w3.org/2000/svg"
 width="512.000000pt" height="512.000000pt" viewBox="0 0 512.000000 512.000000"
 preserveAspectRatio="xMidYMid meet">
<metadata>
Created by potrace 1.14, written by Peter Selinger 2001-2017
</metadata>
<g transform="translate(0.000000,512.000000) scale(0.100000,-0.100000)"
fill="#000000" stroke="none">
<path d="M2348 4965 c-2 -1 -34 -5 -73 -9 -107 -9 -142 -15 -224 -37 -129 -33
-301 -129 -301 -167 0 -21 -32 -62 -43 -55 -6 3 -7 1 -3 -5 4 -7 1 -12 -6 -12
-10 0 -10 -2 -1 -8 7 -4 11 -17 9 -29 -3 -15 2 -23 16 -26 14 -4 19 -11 15
-21 -7 -17 57 -86 79 -86 7 0 14 -3 16 -7 2 -5 23 -19 48 -32 38 -20 120 -91
105 -91 -5 0 76 -80 105 -104 22 -18 120 -62 171 -77 60 -18 289 -18 359 0 51
13 79 24 155 64 39 21 123 98 127 117 2 8 8 19 13 25 15 15 64 46 69 43 2 -2
12 4 22 13 11 9 26 19 34 23 41 18 76 45 87 67 7 13 13 20 13 16 0 -4 6 -2 14
5 8 7 12 16 10 20 -3 4 5 5 16 3 17 -3 19 0 14 23 -4 15 -12 34 -18 42 -10 13
-9 13 8 0 18 -14 19 -13 13 2 -3 9 -1 19 6 22 9 3 9 5 0 5 -7 1 -13 8 -13 16
0 9 -6 12 -17 8 -10 -3 -15 -3 -11 2 4 4 1 14 -7 22 -8 8 -18 20 -22 26 -23
36 -174 127 -210 127 -7 0 -13 5 -13 12 0 6 -3 9 -6 5 -4 -3 -13 1 -21 9 -8 8
-18 12 -23 9 -4 -3 -11 2 -14 10 -4 12 -10 13 -24 6 -10 -5 -36 -6 -62 -1 -25
5 -63 11 -85 15 -39 7 -321 15 -327 10z"/>
<path d="M3583 4382 c-19 -3 -21 -7 -13 -23 6 -10 8 -19 4 -19 -3 0 -1 -6 5
-13 6 -8 8 -17 4 -20 -3 -4 -1 -7 6 -7 7 0 9 -4 6 -10 -3 -5 -2 -10 3 -10 6 0
13 -16 16 -35 4 -19 12 -35 18 -35 6 0 9 -3 5 -6 -3 -3 5 -24 19 -45 13 -21
22 -39 19 -39 -2 0 4 -16 15 -35 24 -44 60 -151 60 -182 0 -12 5 -23 11 -23 6
0 9 -7 6 -15 -4 -8 -2 -17 4 -20 5 -4 7 -17 5 -30 -2 -13 -2 -26 2 -29 3 -3 7
-22 9 -42 2 -20 11 -53 19 -73 19 -44 26 -70 25 -95 0 -11 4 -27 9 -36 6 -11
5 -21 -2 -28 -9 -9 -8 -12 3 -12 12 0 12 -2 -1 -10 -12 -8 -13 -12 -2 -19 8
-4 13 -11 13 -15 -3 -23 0 -30 9 -16 8 12 10 11 10 -7 0 -13 4 -23 9 -23 5 0
12 -7 15 -16 3 -8 2 -12 -4 -9 -6 3 -10 2 -10 -4 0 -5 3 -11 8 -13 12 -5 52
-85 46 -91 -12 -11 45 -19 73 -10 20 7 28 17 29 34 2 59 3 61 27 53 12 -3 29
-13 38 -20 9 -8 19 -12 22 -9 4 3 5 2 3 -1 -3 -3 4 -15 14 -27 18 -18 18 -21
3 -32 -13 -10 -11 -13 16 -25 17 -7 29 -15 26 -18 -2 -3 0 -11 6 -19 6 -7 8
-13 4 -13 -4 0 -1 -8 6 -17 7 -10 10 -15 5 -11 -10 8 -39 -18 -33 -29 3 -5 -1
-14 -9 -21 -8 -7 -14 -10 -14 -7 0 3 -11 -5 -24 -17 -13 -13 -22 -26 -20 -29
2 -4 -3 -9 -11 -13 -8 -3 -15 -12 -15 -20 0 -7 -7 -16 -15 -20 -8 -3 -14 -9
-14 -13 1 -4 -5 -23 -13 -41 -16 -36 -13 -81 6 -84 35 -4 43 -3 68 9 41 20 85
17 91 -7 3 -10 1 -20 -4 -22 -16 -5 22 -48 43 -48 11 0 35 -7 54 -16 27 -13
32 -19 23 -30 -8 -10 -5 -15 15 -20 37 -9 56 1 56 30 0 15 8 30 19 36 11 5 22
19 26 29 3 11 19 21 39 25 48 9 65 0 60 -31 -5 -25 8 -42 30 -43 14 0 106 101
106 117 0 16 -36 53 -52 54 -52 3 -85 30 -95 79 -3 17 -10 33 -14 36 -5 3 -7
10 -4 15 4 5 2 9 -3 9 -5 0 -8 10 -7 23 3 29 -12 70 -24 62 -5 -3 -15 10 -22
29 -7 19 -17 32 -23 29 -6 -3 2 7 17 22 21 20 25 30 17 35 -9 6 -9 9 1 13 10
4 10 6 2 6 -7 1 -13 8 -13 16 0 8 -4 15 -9 15 -6 0 -9 9 -8 20 1 11 5 20 9 20
4 0 8 9 8 21 0 13 -4 18 -12 13 -10 -6 -10 -5 -1 7 10 12 10 18 0 29 -10 10
-9 11 3 5 12 -6 13 -5 3 6 -15 16 -17 33 -3 24 6 -4 7 1 3 11 -4 12 -3 15 5
10 17 -10 15 -2 -7 22 -10 12 -20 19 -23 16 -3 -3 -8 7 -12 21 -4 14 -11 25
-16 25 -5 0 -7 6 -4 14 3 8 0 17 -5 21 -6 3 -9 11 -6 16 4 5 -2 9 -12 9 -10 0
-14 4 -8 8 6 4 17 20 25 37 8 16 29 44 46 62 18 18 31 40 30 50 0 10 -23 41
-51 70 -27 29 -55 58 -60 65 -10 12 -12 57 -5 83 7 27 -2 35 -37 35 -38 -1
-83 -27 -83 -49 0 -22 -57 -12 -73 13 -15 23 -77 42 -77 24 0 -5 -5 -6 -11 -2
-7 4 -10 -6 -8 -29 2 -20 -3 -43 -11 -53 -14 -18 -14 -18 4 -4 18 14 19 14 8
-6 -6 -12 -8 -24 -5 -28 3 -3 1 -6 -6 -6 -7 0 -10 -4 -7 -8 7 -12 -43 -13 -66
-1 -14 7 -17 14 -10 21 7 7 7 19 1 36 -5 14 -7 32 -5 39 3 8 2 12 -3 9 -14 -9
-21 20 -8 33 8 8 8 11 -2 11 -11 0 -11 3 0 17 12 14 12 16 -2 11 -12 -5 -15 0
-14 24 1 16 -4 32 -11 35 -7 2 -10 12 -7 20 4 11 2 14 -5 9 -9 -5 -9 -1 0 19
8 18 9 29 1 33 -11 7 -11 47 0 58 9 9 -15 44 -30 44 -7 0 -13 4 -13 9 0 14
-71 3 -90 -14 -28 -25 -64 -18 -93 19 -28 34 -53 44 -94 38z m364 -409 c-4 -3
-1 -13 6 -22 11 -14 10 -14 -5 -2 -16 12 -16 31 -1 31 4 0 3 -3 0 -7z"/>
<path d="M993 4044 c-17 -19 -29 -34 -26 -34 3 0 1 -6 -4 -12 -14 -19 -14 -60
0 -51 7 4 6 0 -2 -10 -11 -14 -11 -20 0 -34 10 -11 10 -14 2 -9 -16 9 -17 -6
-1 -22 7 -7 9 -12 5 -12 -3 0 -2 -11 3 -25 6 -16 6 -25 -1 -25 -6 0 -6 -6 -1
-17 9 -18 9 -35 -3 -81 -4 -18 -3 -22 7 -16 9 5 8 1 -2 -12 -35 -45 -41 -63
-22 -73 16 -10 16 -10 0 -11 -12 0 -18 -8 -18 -24 0 -14 -4 -27 -10 -31 -5 -3
-7 -12 -3 -20 3 -8 1 -15 -5 -15 -6 0 -13 -13 -17 -30 -4 -16 -10 -30 -14 -30
-4 0 -15 -15 -26 -32 -10 -18 -31 -46 -47 -61 -16 -15 -26 -32 -23 -38 4 -5 1
-8 -6 -7 -8 2 -13 -7 -13 -22 -1 -14 -9 -33 -19 -43 -18 -18 -18 -19 -1 -39
12 -13 14 -18 5 -16 -7 2 -16 -3 -19 -11 -3 -10 0 -11 9 -5 11 6 12 5 2 -8 -7
-8 -9 -18 -5 -22 4 -4 0 -6 -8 -4 -9 2 -14 -4 -14 -14 1 -10 -1 -17 -5 -16
-18 2 -22 -4 -11 -17 7 -9 10 -18 6 -22 -3 -3 -6 -1 -6 6 0 7 -5 9 -10 6 -6
-4 -8 -11 -5 -16 4 -5 1 -9 -4 -9 -6 0 -11 -7 -11 -15 0 -8 -6 -15 -14 -15 -8
0 -18 -5 -22 -12 -5 -7 -2 -9 7 -3 8 4 1 -4 -15 -19 -16 -14 -25 -26 -20 -26
4 0 -2 -7 -14 -16 -12 -8 -22 -22 -22 -30 0 -8 -3 -14 -8 -14 -4 0 -12 -16
-18 -35 -8 -25 -8 -35 0 -35 6 0 5 -4 -3 -9 -8 -5 -16 -15 -17 -23 -5 -31 -10
-42 -31 -66 -24 -26 -31 -48 -11 -36 7 4 8 3 4 -5 -4 -6 -12 -9 -17 -6 -5 4
-9 1 -9 -5 0 -17 -21 -35 -68 -59 -28 -14 -42 -28 -42 -41 0 -11 -9 -25 -19
-32 -16 -10 -18 -15 -8 -27 9 -12 9 -13 -1 -7 -8 5 -15 -1 -21 -17 -6 -14 -15
-28 -21 -32 -5 -3 -8 -11 -5 -16 4 -5 2 -9 -3 -9 -4 0 -8 -21 -8 -47 1 -27 -4
-63 -10 -82 -13 -37 -8 -71 10 -71 6 0 17 -9 24 -20 7 -11 20 -20 30 -20 14 0
15 -2 3 -9 -12 -8 -10 -12 12 -22 15 -7 26 -17 24 -22 -1 -5 13 -26 32 -45 19
-20 29 -38 23 -40 -18 -6 26 -42 52 -42 46 0 55 9 45 42 -5 17 -18 41 -29 53
-11 12 -20 27 -20 33 0 14 23 6 118 -39 34 -17 74 -29 88 -27 25 3 24 5 -28
57 -29 30 -46 50 -38 46 13 -8 13 -7 0 11 -8 10 -19 22 -25 26 -5 4 -7 8 -3 8
4 0 1 17 -6 38 -7 20 -10 46 -6 57 5 14 1 25 -12 37 -23 20 -20 48 7 68 26 19
36 19 59 -4 12 -12 19 -34 20 -62 1 -40 4 -45 32 -54 21 -7 40 -7 58 -1 27 11
35 36 14 44 -8 3 -6 6 5 6 15 1 16 5 7 21 -6 11 -7 20 -3 20 4 0 8 11 8 24 0
15 -5 22 -13 19 -9 -4 -10 1 -2 21 6 17 6 26 0 26 -6 0 -10 9 -10 20 0 11 -3
20 -7 20 -5 0 -8 11 -8 25 0 14 4 25 8 25 5 0 5 5 2 10 -3 6 -1 10 6 10 8 0 7
5 -2 17 -8 10 -9 14 -2 10 6 -4 14 -3 18 3 3 5 0 10 -7 10 -9 0 -9 3 2 10 12
8 12 10 1 10 -10 0 -11 3 -2 13 8 10 7 17 -2 27 -9 10 -9 11 1 6 6 -4 12 -3
12 3 0 5 19 29 43 52 23 24 41 47 40 51 -2 4 1 7 6 5 15 -4 61 53 63 79 1 13
6 24 10 24 4 0 7 3 6 8 -6 22 17 49 54 66 24 11 46 19 49 18 4 -1 19 10 33 23
14 13 26 22 26 19 0 -3 12 9 27 28 15 18 36 39 46 46 9 7 15 18 12 23 -4 5 2
6 12 2 10 -3 15 -3 11 2 -4 4 4 16 17 27 14 11 25 26 25 34 0 8 6 14 13 14 8
0 7 4 -3 10 -8 5 -10 10 -4 10 5 0 23 18 40 40 16 22 33 40 37 40 5 0 22 14
37 30 15 17 34 30 41 30 7 0 10 3 6 6 -3 3 3 16 14 27 11 12 18 26 16 32 -2 5
0 21 5 35 5 13 6 21 2 18 -4 -4 -15 9 -26 28 -11 20 -30 47 -42 61 -19 21 -24
36 -24 84 0 41 4 57 12 52 6 -4 5 1 -3 10 -9 12 -10 17 -2 17 7 0 10 4 7 9 -3
5 6 21 20 36 20 21 22 30 13 41 -6 8 -18 14 -27 14 -22 0 -116 -101 -102 -110
8 -5 6 -9 -5 -14 -10 -4 -15 -12 -11 -22 3 -8 2 -12 -4 -9 -6 4 -10 -5 -10
-20 0 -18 -4 -24 -12 -19 -7 4 -1 -7 12 -25 l23 -33 -24 12 -24 13 20 -23 c11
-13 14 -20 8 -16 -7 4 -13 3 -13 -3 0 -5 8 -12 18 -14 15 -4 15 -5 0 -6 -21
-1 -20 -48 2 -61 13 -8 12 -10 -2 -10 -10 0 -18 -4 -18 -10 0 -5 5 -10 10 -10
6 0 4 -13 -5 -30 -8 -16 -15 -33 -14 -36 0 -4 -12 -15 -27 -25 -26 -16 -30
-17 -45 -3 -15 13 -33 20 -61 23 -5 1 -8 7 -8 15 0 8 -6 16 -12 18 -18 6 -16
40 2 59 8 9 30 24 48 33 31 16 32 19 17 30 -17 12 -17 13 0 20 17 6 17 7 -1
27 -17 19 -17 20 2 14 19 -7 19 -6 0 9 -20 16 -20 16 0 16 16 0 17 2 4 10 -8
5 -10 10 -5 10 6 0 3 5 -5 10 -13 8 -12 10 4 10 20 0 20 0 0 16 -10 8 -13 13
-6 9 8 -4 12 2 12 20 0 18 -4 24 -12 19 -10 -6 -10 -5 -1 7 10 12 10 18 0 29
-10 10 -9 12 4 7 9 -3 16 0 16 9 0 8 -4 14 -9 14 -4 0 -8 5 -8 11 0 5 6 7 13
3 9 -6 9 -4 2 7 -6 8 -10 29 -9 47 2 22 -1 30 -9 26 -8 -5 -8 -2 1 7 6 7 12
17 12 22 0 4 -6 5 -12 1 -10 -6 -10 -5 -1 7 6 8 13 23 15 34 1 11 8 23 13 27
6 4 1 8 -10 8 -13 0 -16 3 -8 8 23 14 -4 33 -53 37 -45 3 -52 0 -81 -31z
m-228 -815 c-4 -5 -12 -9 -18 -8 -9 0 -8 2 1 6 6 2 9 10 6 15 -4 7 -2 8 5 4 6
-4 9 -12 6 -17z"/>
<path d="M3050 3891 c-8 -8 -16 -27 -17 -41 -2 -30 -26 -100 -33 -100 -8 0 -4
-85 4 -98 4 -7 4 -12 -1 -12 -4 0 -8 -22 -8 -49 0 -27 3 -47 7 -44 12 7 5 -41
-7 -49 -6 -5 -6 -8 1 -8 6 0 10 -10 10 -22 -1 -13 0 -27 2 -32 10 -18 7 -146
-3 -146 -5 0 -3 -5 5 -10 11 -7 11 -10 2 -10 -7 0 -10 -5 -7 -10 3 -6 -1 -13
-9 -16 -9 -3 -14 -10 -11 -14 3 -4 -2 -24 -10 -43 -8 -19 -11 -37 -8 -41 4 -3
2 -6 -4 -6 -6 0 -10 -10 -9 -22 1 -13 -3 -27 -9 -31 -7 -6 -6 -10 3 -14 10 -4
10 -8 1 -19 -9 -11 -8 -14 2 -14 11 0 11 -2 -1 -10 -12 -8 -13 -11 -1 -19 10
-6 10 -10 1 -16 -9 -6 -9 -10 1 -16 8 -5 10 -9 4 -9 -5 0 -10 -21 -9 -46 0
-28 -4 -48 -12 -51 -6 -2 -11 -17 -10 -33 1 -16 -2 -27 -6 -24 -4 3 -8 -2 -8
-10 0 -9 -5 -16 -11 -16 -5 0 -8 -4 -5 -9 5 -7 -16 -8 -63 -3 -9 2 -11 10 -6
30 13 52 14 62 4 62 -6 0 -7 5 -4 10 3 6 -1 10 -9 10 -8 0 -18 4 -21 10 -3 5
0 7 8 4 10 -4 14 5 13 38 -1 24 -5 46 -11 50 -7 5 -7 8 0 8 10 0 11 119 1 145
-3 8 -1 15 5 15 6 0 7 5 3 12 -8 13 -12 78 -4 78 9 0 5 195 -4 209 -6 10 -5
12 2 7 7 -4 12 -1 13 6 0 7 2 21 4 30 5 27 -21 53 -55 56 -42 3 -95 -49 -80
-78 7 -13 6 -20 -3 -23 -8 -4 -7 -6 3 -6 16 -1 -15 -22 -62 -41 -26 -11 -30
-32 -12 -62 4 -7 3 -8 -4 -4 -8 5 -10 -2 -6 -24 4 -19 2 -30 -5 -30 -9 0 -9
-5 0 -21 8 -16 8 -20 -1 -14 -9 6 -9 3 -1 -13 14 -26 14 -35 1 -27 -13 8 -8
-18 5 -27 6 -5 6 -8 -1 -8 -12 0 -12 -29 -1 -47 4 -7 9 -43 12 -80 2 -37 7
-84 11 -103 14 -69 8 -144 -15 -192 -12 -27 -27 -48 -33 -48 -6 0 -8 -3 -5 -7
4 -3 2 -12 -3 -19 -6 -6 -9 -16 -8 -22 6 -20 -45 -53 -77 -50 -26 3 -30 7 -33
38 -1 19 -6 42 -9 50 -3 8 -5 21 -4 29 1 8 -3 18 -11 22 -7 5 -8 9 -2 9 6 0 9
20 7 53 -5 75 -5 77 -17 77 -6 0 -3 5 7 11 10 6 14 15 10 22 -4 7 -6 25 -4 41
2 18 -1 26 -8 22 -7 -5 -11 1 -11 14 0 16 -4 20 -16 16 -8 -3 -12 -2 -9 3 7
12 -34 41 -57 41 -10 0 -18 -5 -18 -11 0 -5 -3 -8 -8 -5 -15 9 -7 -131 8 -150
8 -10 10 -15 3 -11 -6 4 -14 3 -18 -3 -3 -5 -1 -10 4 -10 6 0 9 -10 7 -22 -1
-13 4 -29 13 -36 14 -10 14 -11 -4 -5 -20 6 -20 6 -1 -15 14 -17 16 -22 5 -22
-12 0 -12 -2 0 -9 7 -5 10 -14 7 -20 -4 -6 -4 -11 1 -11 4 0 8 -20 8 -45 0
-25 -3 -45 -6 -45 -4 0 -10 -7 -13 -16 -3 -9 -2 -12 5 -8 6 3 5 -3 -2 -14 -10
-16 -10 -23 0 -35 16 -20 -1 -31 -35 -23 -21 6 -24 9 -14 21 10 12 9 15 -6 16
-12 0 -14 3 -6 6 10 4 10 8 1 19 -6 7 -9 20 -6 28 4 10 0 14 -14 11 -17 -4
-19 -2 -9 10 9 11 9 15 1 15 -7 0 -22 10 -34 21 l-22 21 23 -11 c14 -8 22 -8
22 -1 0 5 -5 10 -11 10 -5 0 -7 5 -4 10 4 6 12 7 18 3 7 -4 6 0 -2 10 -7 9
-20 17 -28 17 -9 0 -13 6 -10 15 4 8 2 17 -2 19 -5 3 -8 17 -8 31 0 13 3 22 8
19 5 -3 9 0 9 5 0 6 -5 11 -11 11 -6 0 -8 7 -5 16 4 12 2 15 -9 10 -8 -3 -15
-1 -15 4 0 6 -6 10 -14 10 -7 0 -20 8 -27 18 -13 15 -12 16 4 3 15 -12 17 -12
11 3 -3 9 -10 16 -16 16 -5 0 -6 5 -3 10 3 6 2 10 -4 10 -6 0 -8 7 -5 15 4 8
12 15 20 15 8 0 14 3 14 8 0 12 -108 13 -116 0 -5 -7 -2 -8 7 -3 11 6 12 5 2
-6 -7 -7 -13 -30 -13 -51 0 -23 5 -38 13 -39 6 0 -1 -6 -17 -14 -28 -12 -29
-13 -9 -23 11 -6 24 -8 28 -4 5 4 5 2 2 -4 -4 -7 0 -15 8 -18 13 -4 14 -10 5
-26 -8 -14 -8 -20 0 -20 6 0 8 -5 3 -12 -11 -18 -13 -39 -3 -33 5 3 11 1 15
-5 3 -5 1 -10 -4 -10 -6 0 -11 -5 -11 -11 0 -5 6 -7 13 -4 6 4 3 -1 -7 -9 -18
-15 -15 -20 9 -17 6 1 1 -6 -10 -15 -20 -16 -20 -16 3 -11 18 4 21 2 13 -7 -7
-9 -7 -16 2 -25 9 -10 9 -11 -4 -6 -21 8 -34 -11 -20 -28 14 -17 -26 -44 -42
-28 -6 6 -19 11 -29 11 -10 0 -18 4 -18 8 0 10 -35 9 -67 -2 -27 -9 -30 -21
-7 -30 9 -4 14 -9 10 -13 -3 -3 2 -15 11 -26 10 -11 12 -17 6 -13 -9 5 -11 2
-7 -8 3 -9 10 -16 16 -16 5 0 6 -4 3 -10 -3 -5 -2 -10 3 -10 9 0 26 -68 25
-102 0 -10 6 -18 13 -18 7 0 11 -6 8 -14 -8 -20 -34 -13 -56 15 -30 40 -33 44
-36 59 -2 7 -12 26 -23 42 -11 15 -18 28 -14 28 3 0 -1 13 -10 30 -9 17 -12
30 -8 30 4 0 -3 9 -14 20 -12 10 -24 32 -28 49 -8 37 -38 65 -62 57 -14 -4
-18 -16 -18 -48 0 -24 2 -45 5 -48 13 -11 34 -99 36 -150 1 -30 3 -56 5 -57 1
-2 3 -29 3 -61 1 -31 5 -63 10 -70 4 -6 9 -20 11 -31 2 -10 13 -38 24 -62 12
-23 21 -52 21 -64 0 -11 10 -29 23 -40 28 -25 86 -65 94 -65 8 0 43 -42 43
-52 0 -5 -6 -6 -12 -2 -10 6 -10 5 -1 -7 7 -9 10 -26 7 -40 -10 -44 -16 -93
-19 -154 -3 -56 -1 -61 29 -90 18 -16 50 -39 72 -50 21 -11 51 -28 66 -38 16
-10 28 -16 28 -13 0 4 25 -8 55 -25 77 -43 111 -46 179 -15 31 14 62 26 69 26
7 0 19 6 26 13 11 9 12 9 7 0 -5 -9 -2 -11 8 -7 9 3 14 10 11 14 -3 5 4 6 15
3 12 -3 20 0 20 7 0 9 3 10 13 1 8 -6 16 -8 19 -5 4 3 9 -8 13 -25 4 -17 11
-28 17 -25 6 4 6 10 -1 17 -6 6 -11 15 -11 21 0 5 6 2 13 -8 10 -14 11 -24 3
-42 -7 -15 -13 -19 -18 -11 -4 7 -6 3 -6 -9 2 -15 8 -20 23 -17 11 2 14 1 8
-3 -7 -3 -13 -10 -13 -15 0 -6 4 -8 9 -5 20 12 63 -46 51 -69 -1 -3 -3 -9 -4
-14 -1 -11 -68 -71 -78 -71 -17 0 8 -38 51 -76 l45 -41 3 -74 c1 -41 -3 -79
-9 -86 -7 -9 -7 -13 0 -13 6 0 8 -11 5 -27 -3 -16 -6 -72 -6 -126 l-2 -98 37
-33 c20 -19 59 -45 85 -58 55 -26 106 -74 111 -103 2 -11 9 -26 15 -34 10 -12
9 -13 -2 -7 -10 7 -12 3 -6 -13 3 -12 2 -21 -3 -21 -6 0 -9 -8 -8 -17 2 -10
-2 -21 -8 -25 -8 -5 -7 -8 2 -8 8 0 10 -5 5 -12 -13 -21 -14 -50 -3 -64 8 -9
6 -15 -7 -23 -17 -9 -17 -10 0 -17 15 -5 16 -9 5 -15 -11 -7 -11 -12 0 -30 10
-15 10 -19 1 -14 -8 5 -10 4 -5 -3 4 -7 9 -21 11 -33 6 -31 25 -49 51 -49 17
0 22 5 19 20 -2 11 1 20 6 20 6 0 7 5 4 10 -4 6 -12 8 -18 4 -7 -3 -4 1 6 9
10 8 14 18 9 21 -10 6 -10 45 0 61 3 6 2 19 -2 30 -4 11 -3 27 1 35 9 18 23
72 21 83 -1 4 2 7 6 7 5 0 9 15 9 33 1 17 11 57 23 87 33 84 49 138 43 144 -4
3 -2 6 4 6 6 0 16 21 23 48 8 26 18 50 24 54 7 5 6 8 -3 8 -9 0 -10 4 -5 13 5
6 9 28 9 47 0 19 5 38 10 42 6 5 5 8 -4 8 -11 0 -11 3 0 17 12 15 12 16 -1 8
-12 -7 -13 -6 -4 6 11 16 12 29 2 44 -4 6 -3 17 2 25 5 8 5 22 -1 32 -7 12 -6
18 1 18 7 0 8 6 1 18 -11 22 -12 182 -1 182 5 0 7 9 5 20 -2 11 0 20 4 20 4 0
8 6 9 13 0 6 3 24 6 40 4 15 3 27 -2 27 -4 0 -7 19 -5 42 1 22 -3 50 -8 61 -8
14 -8 18 0 13 7 -5 11 1 11 14 0 14 -4 19 -12 14 -10 -6 -10 -4 0 8 9 11 10
18 2 23 -6 3 -8 11 -4 16 3 5 1 16 -6 24 -8 9 -8 15 0 20 6 4 7 12 1 22 -5 9
-5 29 -1 45 6 18 5 28 -2 28 -7 0 -7 4 1 13 6 8 7 17 3 21 -10 11 -10 56 1 56
4 0 5 5 2 10 -7 12 10 31 43 49 38 20 59 21 78 0 9 -10 13 -19 8 -19 -5 0 5
-9 21 -20 17 -11 42 -20 56 -20 27 0 29 5 30 73 0 9 5 17 11 17 6 0 6 6 -2 15
-10 12 -10 15 1 15 9 1 8 5 -5 15 -20 15 -20 15 0 15 14 0 16 2 5 9 -8 5 -9
10 -3 12 6 3 1 24 -13 54 -22 49 -22 50 -3 61 10 5 38 9 61 8 58 -3 69 3 56
28 -9 16 -8 19 2 13 9 -6 11 -3 6 8 -3 9 -2 19 3 22 12 7 11 103 -1 111 -4 2
-6 11 -2 19 3 9 -1 15 -10 15 -9 0 -19 9 -22 21 -4 11 -12 18 -19 16 -7 -3
-13 1 -13 9 0 7 4 11 8 9 6 -5 23 23 21 35 0 3 13 15 29 25 16 11 29 26 29 33
0 7 4 11 9 7 15 -9 41 43 43 85 0 8 5 21 11 28 6 8 5 12 -4 12 -11 0 -11 2 1
10 9 6 11 13 5 18 -5 4 -12 16 -13 27 -2 11 -9 23 -15 27 -9 6 -9 8 0 8 9 0
10 7 4 23 -5 13 -5 30 -1 37 5 8 4 22 -1 32 -6 11 -6 18 0 18 11 0 9 19 -3 39
-7 10 -6 12 4 6 10 -6 12 -4 7 8 -3 10 -3 17 1 17 5 0 7 14 6 30 -1 17 1 32 6
35 4 2 6 20 5 40 -1 19 3 35 8 35 5 0 4 7 -3 15 -10 12 -10 15 0 15 7 0 10 7
6 15 -3 8 0 15 7 15 8 0 8 3 -2 9 -9 6 -10 14 -4 27 6 11 9 80 9 154 -1 81 3
138 9 142 6 5 5 8 -4 8 -11 0 -11 3 -1 15 9 11 10 15 1 15 -8 0 -7 5 3 15 8 8
19 15 25 15 6 0 11 7 11 16 0 8 4 13 9 10 5 -4 8 5 7 18 -2 14 2 24 8 23 6 -1
11 10 11 24 -1 19 4 25 13 21 11 -4 9 3 -4 24 -13 20 -14 25 -4 17 13 -10 15
-5 15 35 -1 26 -6 57 -13 69 -9 17 -9 22 1 26 9 4 8 6 -2 6 -11 1 -11 4 -1 16
11 13 10 14 -4 9 -9 -4 -16 -3 -15 2 4 23 -3 32 -26 38 -26 7 -55 -11 -55 -33
0 -6 -9 -11 -20 -11 -10 0 -23 -6 -27 -14 -4 -7 -19 -17 -32 -21 -19 -6 -23
-4 -18 8 3 8 3 18 -1 22 -4 4 -7 16 -7 28 -1 12 -4 27 -8 34 -4 6 -8 22 -9 35
-2 18 -9 25 -27 26 -33 3 -65 -26 -50 -45 9 -10 8 -13 0 -13 -9 0 -9 -5 0 -21
7 -13 7 -19 1 -15 -6 3 -13 2 -17 -4 -3 -5 -1 -10 6 -10 8 0 8 -4 -1 -15 -10
-12 -10 -15 1 -15 12 0 12 -2 0 -9 -8 -5 -12 -19 -9 -35 3 -14 1 -26 -4 -26
-5 0 -7 -4 -3 -9 3 -5 -1 -15 -8 -23 -8 -7 -12 -19 -9 -26 2 -6 -2 -12 -8 -12
-7 0 -10 -7 -6 -17 4 -10 4 -14 0 -11 -3 4 -12 2 -18 -5 -9 -8 -10 -24 -4 -56
4 -25 6 -51 3 -58 -2 -7 1 -13 7 -13 7 0 6 -5 -2 -15 -7 -8 -9 -15 -6 -15 4 0
0 -8 -10 -17 -15 -16 -15 -17 2 -23 17 -6 17 -7 0 -13 -13 -5 -15 -11 -9 -20
12 -16 16 -80 4 -73 -5 3 -11 0 -14 -7 -3 -7 -24 -14 -47 -15 -24 -2 -39 1
-36 6 3 6 -1 13 -10 16 -13 5 -14 9 -4 21 8 10 9 15 2 15 -7 0 -9 7 -5 17 5
12 3 14 -8 8 -11 -6 -12 -5 -1 6 13 14 17 33 4 25 -4 -2 -8 4 -8 14 0 10 4 16
8 14 4 -3 8 4 8 15 0 12 -4 21 -8 21 -5 0 -9 15 -9 33 -4 167 -20 337 -34 354
-7 7 -8 13 -3 13 5 0 2 5 -6 10 -13 8 -13 10 2 10 14 0 14 4 5 24 -14 30 -48
38 -67 17z m-233 -397 c-3 -3 -12 -4 -19 -1 -8 3 -5 6 6 6 11 1 17 -2 13 -5z
m-7 -548 c0 -2 -7 -7 -16 -10 -8 -3 -12 -2 -9 4 6 10 25 14 25 6z"/>
</g>
</svg>
