<svg version="1.1" id="Layer_1" xmlns="http://www.w3.org/2000/svg" xmlns:xlink="http://www.w3.org/1999/xlink" x="0px" y="0px"
	 width="100%" viewBox="0 0 556 585" enable-background="new 0 0 556 585" xml:space="preserve">
<path fill="#000000" opacity="1.000000" stroke="none" 
	d="
M311.000000,586.000000 
	C207.355927,586.000000 104.211838,586.000000 1.033879,586.000000 
	C1.033879,391.065277 1.033879,196.130554 1.033879,1.097916 
	C186.227432,1.097916 371.454926,1.097916 556.841187,1.097916 
	C556.841187,195.999893 556.841187,390.999939 556.841187,586.000000 
	C475.130493,586.000000 393.315247,586.000000 311.000000,586.000000 
M427.102966,316.735687 
	C427.403503,306.913177 428.095093,297.083862 427.923523,287.269592 
	C427.562469,266.617981 426.594360,245.976959 426.229675,225.325317 
	C426.139130,220.195755 424.349060,218.713120 419.425690,218.892044 
	C410.345856,219.222000 401.245422,218.986328 392.010315,218.986328 
	C392.010315,201.554474 392.259949,184.735977 391.933472,167.928680 
	C391.659058,153.801773 391.932892,139.502808 389.822662,125.605164 
	C384.771118,92.336533 366.562012,67.426361 336.067688,53.549267 
	C289.652618,32.427097 244.498230,36.868935 202.902863,66.431435 
	C179.703049,82.919899 166.429962,106.485893 164.071793,135.046082 
	C162.705444,151.593918 163.425919,168.317368 163.291626,184.962448 
	C163.206268,195.543747 163.275665,206.126282 163.275665,217.156036 
	C152.737473,217.156036 142.346786,217.156036 131.846542,217.156036 
	C131.744644,219.084686 131.575989,220.577316 131.600143,222.066833 
	C132.302185,265.364319 132.962784,308.662689 133.837128,351.956757 
	C133.922989,356.208466 134.814651,360.616638 136.219559,364.642578 
	C152.344543,410.851074 182.948105,443.097382 229.616455,458.686462 
	C243.001953,463.157745 257.416199,464.549316 271.753937,467.432434 
	C271.753937,482.221863 271.753937,498.127045 271.753937,513.090942 
	C264.319458,515.326233 257.109192,516.822144 250.487976,519.681885 
	C244.387848,522.316650 244.606491,526.835510 250.277252,530.428772 
	C251.251358,531.045959 252.297409,531.613159 253.385956,531.976685 
	C269.840302,537.472778 286.355072,537.657410 302.845490,532.224548 
	C306.454834,531.035400 310.746033,529.532959 310.792297,525.073547 
	C310.839264,520.541382 306.526733,518.971802 302.881042,517.928223 
	C296.744354,516.171448 290.462555,514.921570 284.217010,513.452637 
	C284.217010,497.774872 284.217010,481.999908 284.217010,466.007324 
	C287.685120,465.679535 290.973114,465.394562 294.255371,465.054504 
	C326.595184,461.704041 355.055176,449.361542 378.523285,426.863678 
	C409.463654,397.202484 425.944763,360.769958 427.102966,316.735687 
M64.130371,310.450867 
	C69.290443,321.945984 75.375916,332.882141 83.221764,342.928741 
	C85.204926,341.327637 86.821526,340.022461 88.198288,338.910919 
	C47.294312,277.481415 48.191235,216.852524 88.967567,156.266617 
	C87.181694,154.993057 85.502304,153.795441 83.728058,152.530182 
	C74.710556,164.527588 67.652519,176.906372 62.415508,190.286438 
	C46.759418,230.286392 47.096558,270.118713 64.130371,310.450867 
M496.020844,303.585876 
	C516.880981,248.737686 507.354370,198.487885 473.579132,151.240097 
	C471.228210,153.002213 469.555817,154.255768 468.065216,155.373047 
	C510.199707,216.138840 511.008423,276.659241 469.055756,337.691833 
	C470.649872,338.839691 472.371338,340.079193 474.271271,341.447235 
	C483.320618,329.957245 490.083588,317.443512 496.020844,303.585876 
M87.037994,252.445496 
	C87.728149,272.708801 92.792854,291.703186 103.274628,309.613129 
	C105.456451,308.385559 107.261528,307.369934 109.124001,306.322052 
	C88.769630,267.712982 89.065506,229.544388 109.262947,191.247086 
	C107.310745,190.037155 105.544922,188.942734 103.796341,187.858994 
	C93.183937,203.617676 86.798676,228.052475 87.037994,252.445496 
M466.351898,277.908142 
	C473.992981,245.959717 469.767456,215.696747 453.599731,186.705368 
	C451.402313,188.043198 449.505859,189.197784 447.626801,190.341797 
	C465.317688,221.496140 470.408356,264.264038 448.299927,304.840363 
	C450.077423,305.924225 451.863403,307.013245 454.951111,308.896057 
	C458.824493,298.442413 462.481293,288.573334 466.351898,277.908142 
z"/>
<path fill="#F8F8F8" opacity="1.000000" stroke="none" 
	d="
M427.085083,317.208008 
	C425.944763,360.769958 409.463654,397.202484 378.523285,426.863678 
	C355.055176,449.361542 326.595184,461.704041 294.255371,465.054504 
	C290.973114,465.394562 287.685120,465.679535 284.217010,466.007324 
	C284.217010,481.999908 284.217010,497.774872 284.217010,513.452637 
	C290.462555,514.921570 296.744354,516.171448 302.881042,517.928223 
	C306.526733,518.971802 310.839264,520.541382 310.792297,525.073547 
	C310.746033,529.532959 306.454834,531.035400 302.845490,532.224548 
	C286.355072,537.657410 269.840302,537.472778 253.385956,531.976685 
	C252.297409,531.613159 251.251358,531.045959 250.277252,530.428772 
	C244.606491,526.835510 244.387848,522.316650 250.487976,519.681885 
	C257.109192,516.822144 264.319458,515.326233 271.753937,513.090942 
	C271.753937,498.127045 271.753937,482.221863 271.753937,467.432434 
	C257.416199,464.549316 243.001953,463.157745 229.616455,458.686462 
	C182.948105,443.097382 152.344543,410.851074 136.219559,364.642578 
	C134.814651,360.616638 133.922989,356.208466 133.837128,351.956757 
	C132.962784,308.662689 132.302185,265.364319 131.600143,222.066833 
	C131.575989,220.577316 131.744644,219.084686 131.846542,217.156036 
	C142.346786,217.156036 152.737473,217.156036 163.275665,217.156036 
	C163.275665,206.126282 163.206268,195.543747 163.291626,184.962448 
	C163.425919,168.317368 162.705444,151.593918 164.071793,135.046082 
	C166.429962,106.485893 179.703049,82.919899 202.902863,66.431435 
	C244.498230,36.868935 289.652618,32.427097 336.067688,53.549267 
	C366.562012,67.426361 384.771118,92.336533 389.822662,125.605164 
	C391.932892,139.502808 391.659058,153.801773 391.933472,167.928680 
	C392.259949,184.735977 392.010315,201.554474 392.010315,218.986328 
	C401.245422,218.986328 410.345856,219.222000 419.425690,218.892044 
	C424.349060,218.713120 426.139130,220.195755 426.229675,225.325317 
	C426.594360,245.976959 427.562469,266.617981 427.923523,287.269592 
	C428.095093,297.083862 427.403503,306.913177 427.085083,317.208008 
M377.305176,106.283768 
	C368.831421,85.233482 353.990570,70.026680 333.847565,60.105106 
	C306.559052,46.663956 277.915436,44.794098 248.705429,52.145214 
	C224.487000,58.240128 203.789871,70.326050 188.469040,90.567101 
	C176.084610,106.928741 170.204102,125.607315 170.123489,145.930588 
	C170.018417,172.421234 170.596176,198.914230 170.822769,225.406708 
	C170.909149,235.507233 170.836807,245.609131 170.836807,255.988617 
	C184.354294,255.988617 197.158798,255.958527 209.963043,256.003723 
	C214.944321,256.021332 218.094162,259.727142 218.002731,265.249115 
	C217.914688,270.565613 214.875885,273.969055 209.969986,273.994385 
	C198.971313,274.051147 187.972168,274.011688 176.973206,274.011444 
	C175.054962,274.011383 173.136719,274.011444 171.390991,274.011444 
	C171.390991,278.700287 171.390991,282.640015 171.390991,286.994659 
	C184.647293,286.994659 197.606705,286.972961 210.565979,287.005096 
	C215.904785,287.018341 218.911255,290.218597 219.008453,295.832916 
	C219.108704,301.623444 215.986984,304.970367 210.390533,304.998199 
	C204.224625,305.028839 198.058456,305.009521 191.892410,305.010437 
	C185.120499,305.011414 178.348587,305.010651 171.627655,305.010651 
	C171.627655,309.567780 171.627655,313.540039 171.627655,317.989838 
	C173.447983,317.989838 175.074173,317.989807 176.700363,317.989838 
	C187.699326,317.990051 198.700378,318.114471 209.696167,317.927856 
	C213.951584,317.855591 216.145309,319.928833 217.403915,323.576996 
	C219.791718,330.498108 215.962540,336.002197 208.757095,336.007599 
	C196.476135,336.016785 184.195160,336.010132 171.935043,336.010132 
	C171.130341,370.649841 191.623672,401.468323 224.026245,415.290619 
	C254.053848,428.099823 284.708862,429.345093 315.717499,419.945557 
	C342.007690,411.976379 363.374786,397.291382 376.205536,372.117828 
	C381.762482,361.215271 384.712341,349.628052 385.009094,337.009796 
	C371.244537,337.009796 357.939240,337.032898 344.634064,336.998718 
	C339.129913,336.984589 335.943634,333.495148 336.037628,327.746368 
	C336.126343,322.317993 339.317902,319.020447 344.682220,319.001190 
	C356.514282,318.958710 368.346588,318.987122 380.178802,318.986633 
	C381.759094,318.986542 383.339417,318.986603 384.795868,318.986603 
	C384.795868,314.318512 384.795868,310.363831 384.795868,306.009735 
	C370.987610,306.009735 357.368439,306.028473 343.749359,306.000610 
	C338.189575,305.989258 334.975769,302.567474 335.033386,296.854401 
	C335.087860,291.453247 338.314209,288.040009 343.584595,288.010437 
	C353.416687,287.955322 363.249268,287.990509 373.081665,287.988617 
	C377.007141,287.987854 380.932648,287.988495 384.651672,287.988495 
	C384.651672,283.271088 384.651672,279.200378 384.651672,275.002014 
	C370.992218,275.002014 357.669556,275.033630 344.347229,274.986145 
	C339.153992,274.967651 336.048981,271.503510 336.042084,265.954132 
	C336.035400,260.571930 339.284790,257.068237 344.500366,257.011688 
	C350.832367,256.943085 357.165619,256.990601 363.498352,256.989624 
	C370.596924,256.988525 377.695526,256.989349 384.803223,256.989349 
	C384.803223,217.930984 384.962646,179.456055 384.707092,140.983871 
	C384.629395,129.286957 382.077850,117.875694 377.305176,106.283768 
M392.005676,281.500000 
	C392.005676,298.660767 392.028625,315.821533 392.000916,332.982269 
	C391.940491,370.433868 374.671265,398.097778 342.529205,415.980927 
	C306.221954,436.181519 267.689392,438.493561 228.749496,424.722351 
	C188.940186,410.643707 164.313614,377.793518 164.645691,333.906891 
	C164.912872,298.595062 164.143738,263.275330 163.816162,227.959290 
	C163.804428,226.692764 163.598099,225.428040 163.492569,224.272919 
	C154.990829,224.272919 146.893005,224.272919 138.200790,224.272919 
	C138.200790,227.189041 138.155701,229.834442 138.207550,232.477936 
	C138.958801,270.780853 139.700974,309.083984 140.523239,347.385406 
	C140.594238,350.692810 140.847961,354.079437 141.639130,357.275177 
	C148.164948,383.634644 162.587463,405.283752 182.343735,423.427063 
	C205.022095,444.253937 231.930222,455.830750 262.665771,458.253448 
	C311.611572,462.111603 353.278534,447.279999 385.399902,409.283600 
	C404.294922,386.932617 415.957977,361.143555 418.990662,331.788788 
	C422.203522,300.690369 420.787903,269.553314 419.584869,238.422668 
	C419.427032,234.338425 419.137146,230.259308 418.915131,226.297882 
	C409.708954,226.297882 400.962952,226.297882 392.005676,226.297882 
	C392.005676,244.557938 392.005676,262.528961 392.005676,281.500000 
z"/>
<path fill="#F4F4F4" opacity="1.000000" stroke="none" 
	d="
M63.995140,310.095184 
	C47.096558,270.118713 46.759418,230.286392 62.415508,190.286438 
	C67.652519,176.906372 74.710556,164.527588 83.728058,152.530182 
	C85.502304,153.795441 87.181694,154.993057 88.967567,156.266617 
	C48.191235,216.852524 47.294312,277.481415 88.198288,338.910919 
	C86.821526,340.022461 85.204926,341.327637 83.221764,342.928741 
	C75.375916,332.882141 69.290443,321.945984 63.995140,310.095184 
z"/>
<path fill="#F4F4F4" opacity="1.000000" stroke="none" 
	d="
M495.925842,303.959717 
	C490.083588,317.443512 483.320618,329.957245 474.271271,341.447235 
	C472.371338,340.079193 470.649872,338.839691 469.055756,337.691833 
	C511.008423,276.659241 510.199707,216.138840 468.065216,155.373047 
	C469.555817,154.255768 471.228210,153.002213 473.579132,151.240097 
	C507.354370,198.487885 516.880981,248.737686 495.925842,303.959717 
z"/>
<path fill="#F4F4F4" opacity="1.000000" stroke="none" 
	d="
M87.031395,251.954422 
	C86.798676,228.052475 93.183937,203.617676 103.796341,187.858994 
	C105.544922,188.942734 107.310745,190.037155 109.262947,191.247086 
	C89.065506,229.544388 88.769630,267.712982 109.124001,306.322052 
	C107.261528,307.369934 105.456451,308.385559 103.274628,309.613129 
	C92.792854,291.703186 87.728149,272.708801 87.031395,251.954422 
z"/>
<path fill="#F5F5F5" opacity="1.000000" stroke="none" 
	d="
M466.244995,278.306213 
	C462.481293,288.573334 458.824493,298.442413 454.951111,308.896057 
	C451.863403,307.013245 450.077423,305.924225 448.299927,304.840363 
	C470.408356,264.264038 465.317688,221.496140 447.626801,190.341797 
	C449.505859,189.197784 451.402313,188.043198 453.599731,186.705368 
	C469.767456,215.696747 473.992981,245.959717 466.244995,278.306213 
z"/>
<path fill="#010101" opacity="1.000000" stroke="none" 
	d="
M377.494690,106.619911 
	C382.077850,117.875694 384.629395,129.286957 384.707092,140.983871 
	C384.962646,179.456055 384.803223,217.930984 384.803223,256.989349 
	C377.695526,256.989349 370.596924,256.988525 363.498352,256.989624 
	C357.165619,256.990601 350.832367,256.943085 344.500366,257.011688 
	C339.284790,257.068237 336.035400,260.571930 336.042084,265.954132 
	C336.048981,271.503510 339.153992,274.967651 344.347229,274.986145 
	C357.669556,275.033630 370.992218,275.002014 384.651672,275.002014 
	C384.651672,279.200378 384.651672,283.271088 384.651672,287.988495 
	C380.932648,287.988495 377.007141,287.987854 373.081665,287.988617 
	C363.249268,287.990509 353.416687,287.955322 343.584595,288.010437 
	C338.314209,288.040009 335.087860,291.453247 335.033386,296.854401 
	C334.975769,302.567474 338.189575,305.989258 343.749359,306.000610 
	C357.368439,306.028473 370.987610,306.009735 384.795868,306.009735 
	C384.795868,310.363831 384.795868,314.318512 384.795868,318.986603 
	C383.339417,318.986603 381.759094,318.986542 380.178802,318.986633 
	C368.346588,318.987122 356.514282,318.958710 344.682220,319.001190 
	C339.317902,319.020447 336.126343,322.317993 336.037628,327.746368 
	C335.943634,333.495148 339.129913,336.984589 344.634064,336.998718 
	C357.939240,337.032898 371.244537,337.009796 385.009094,337.009796 
	C384.712341,349.628052 381.762482,361.215271 376.205536,372.117828 
	C363.374786,397.291382 342.007690,411.976379 315.717499,419.945557 
	C284.708862,429.345093 254.053848,428.099823 224.026245,415.290619 
	C191.623672,401.468323 171.130341,370.649841 171.935043,336.010132 
	C184.195160,336.010132 196.476135,336.016785 208.757095,336.007599 
	C215.962540,336.002197 219.791718,330.498108 217.403915,323.576996 
	C216.145309,319.928833 213.951584,317.855591 209.696167,317.927856 
	C198.700378,318.114471 187.699326,317.990051 176.700363,317.989838 
	C175.074173,317.989807 173.447983,317.989838 171.627655,317.989838 
	C171.627655,313.540039 171.627655,309.567780 171.627655,305.010651 
	C178.348587,305.010651 185.120499,305.011414 191.892410,305.010437 
	C198.058456,305.009521 204.224625,305.028839 210.390533,304.998199 
	C215.986984,304.970367 219.108704,301.623444 219.008453,295.832916 
	C218.911255,290.218597 215.904785,287.018341 210.565979,287.005096 
	C197.606705,286.972961 184.647293,286.994659 171.390991,286.994659 
	C171.390991,282.640015 171.390991,278.700287 171.390991,274.011444 
	C173.136719,274.011444 175.054962,274.011383 176.973206,274.011444 
	C187.972168,274.011688 198.971313,274.051147 209.969986,273.994385 
	C214.875885,273.969055 217.914688,270.565613 218.002731,265.249115 
	C218.094162,259.727142 214.944321,256.021332 209.963043,256.003723 
	C197.158798,255.958527 184.354294,255.988617 170.836807,255.988617 
	C170.836807,245.609131 170.909149,235.507233 170.822769,225.406708 
	C170.596176,198.914230 170.018417,172.421234 170.123489,145.930588 
	C170.204102,125.607315 176.084610,106.928741 188.469040,90.567101 
	C203.789871,70.326050 224.487000,58.240128 248.705429,52.145214 
	C277.915436,44.794098 306.559052,46.663956 333.847565,60.105106 
	C353.990570,70.026680 368.831421,85.233482 377.494690,106.619911 
M304.447815,323.814270 
	C307.661804,309.319855 307.935425,294.744720 304.858459,280.244843 
	C302.428436,268.793732 298.767731,257.748810 289.776337,249.462540 
	C281.859650,242.166702 271.970764,241.961578 264.343475,249.533493 
	C260.649719,253.200439 257.383331,257.674469 255.147705,262.366394 
	C246.879395,279.719177 245.480301,298.160889 248.298416,316.929749 
	C250.137283,329.176849 253.588593,340.972992 262.158051,350.484924 
	C271.241730,360.567657 282.803223,360.485626 291.940063,350.401031 
	C298.606506,343.043030 301.848358,334.034821 304.447815,323.814270 
M317.125854,147.398132 
	C313.219788,149.729965 308.532806,151.330521 305.544464,154.521729 
	C293.378601,167.513474 292.833252,193.697998 303.892639,207.834732 
	C313.908417,220.637375 329.220245,219.885788 337.460327,205.758011 
	C346.459747,190.328354 346.442871,174.369263 337.792603,158.809692 
	C333.638855,151.338104 327.272675,146.423126 317.125854,147.398132 
M256.114899,195.470551 
	C259.459625,182.722794 258.557617,170.413925 251.994659,158.819351 
	C243.682236,144.134094 228.432007,143.126770 218.485275,156.505875 
	C208.666031,169.713470 208.603363,194.238770 218.355240,207.396500 
	C228.159332,220.624756 243.225754,219.939270 251.663986,205.758011 
	C253.428101,202.793289 254.535706,199.437912 256.114899,195.470551 
z"/>
<path fill="#030303" opacity="1.000000" stroke="none" 
	d="
M392.005676,281.000000 
	C392.005676,262.528961 392.005676,244.557938 392.005676,226.297882 
	C400.962952,226.297882 409.708954,226.297882 418.915131,226.297882 
	C419.137146,230.259308 419.427032,234.338425 419.584869,238.422668 
	C420.787903,269.553314 422.203522,300.690369 418.990662,331.788788 
	C415.957977,361.143555 404.294922,386.932617 385.399902,409.283600 
	C353.278534,447.279999 311.611572,462.111603 262.665771,458.253448 
	C231.930222,455.830750 205.022095,444.253937 182.343735,423.427063 
	C162.587463,405.283752 148.164948,383.634644 141.639130,357.275177 
	C140.847961,354.079437 140.594238,350.692810 140.523239,347.385406 
	C139.700974,309.083984 138.958801,270.780853 138.207550,232.477936 
	C138.155701,229.834442 138.200790,227.189041 138.200790,224.272919 
	C146.893005,224.272919 154.990829,224.272919 163.492569,224.272919 
	C163.598099,225.428040 163.804428,226.692764 163.816162,227.959290 
	C164.143738,263.275330 164.912872,298.595062 164.645691,333.906891 
	C164.313614,377.793518 188.940186,410.643707 228.749496,424.722351 
	C267.689392,438.493561 306.221954,436.181519 342.529205,415.980927 
	C374.671265,398.097778 391.940491,370.433868 392.000916,332.982269 
	C392.028625,315.821533 392.005676,298.660767 392.005676,281.000000 
z"/>
<path fill="#FDFDFD" opacity="1.000000" stroke="none" 
	d="
M304.315369,324.211060 
	C301.848358,334.034821 298.606506,343.043030 291.940063,350.401031 
	C282.803223,360.485626 271.241730,360.567657 262.158051,350.484924 
	C253.588593,340.972992 250.137283,329.176849 248.298416,316.929749 
	C245.480301,298.160889 246.879395,279.719177 255.147705,262.366394 
	C257.383331,257.674469 260.649719,253.200439 264.343475,249.533493 
	C271.970764,241.961578 281.859650,242.166702 289.776337,249.462540 
	C298.767731,257.748810 302.428436,268.793732 304.858459,280.244843 
	C307.935425,294.744720 307.661804,309.319855 304.315369,324.211060 
z"/>
<path fill="#FCFCFC" opacity="1.000000" stroke="none" 
	d="
M317.531708,147.311188 
	C327.272675,146.423126 333.638855,151.338104 337.792603,158.809692 
	C346.442871,174.369263 346.459747,190.328354 337.460327,205.758011 
	C329.220245,219.885788 313.908417,220.637375 303.892639,207.834732 
	C292.833252,193.697998 293.378601,167.513474 305.544464,154.521729 
	C308.532806,151.330521 313.219788,149.729965 317.531708,147.311188 
z"/>
<path fill="#FCFCFC" opacity="1.000000" stroke="none" 
	d="
M256.030365,195.866547 
	C254.535706,199.437912 253.428101,202.793289 251.663986,205.758011 
	C243.225754,219.939270 228.159332,220.624756 218.355240,207.396500 
	C208.603363,194.238770 208.666031,169.713470 218.485275,156.505875 
	C228.432007,143.126770 243.682236,144.134094 251.994659,158.819351 
	C258.557617,170.413925 259.459625,182.722794 256.030365,195.866547 
z"/>
</svg>